<svg id="visual" viewBox="0 0 960 540" width="960" height="540" xmlns="http://www.w3.org/2000/svg" xmlns:xlink="http://www.w3.org/1999/xlink" version="1.1"><rect x="0" y="0" width="960" height="540" fill="#0d4f6f"></rect><path d="M0 326L32 317.2C64 308.3 128 290.7 192 282.3C256 274 320 275 384 295.7C448 316.3 512 356.7 576 381C640 405.3 704 413.7 768 408.3C832 403 896 384 928 374.5L960 365L960 541L928 541C896 541 832 541 768 541C704 541 640 541 576 541C512 541 448 541 384 541C320 541 256 541 192 541C128 541 64 541 32 541L0 541Z" fill="#FFFFFF" stroke-linecap="round" stroke-linejoin="miter"></path></svg>